<svg width="18" height="18" viewBox="0 0 18 18" fill="none" xmlns="http://www.w3.org/2000/svg">
<path d="M9 1.56656C9.33137 1.56656 9.6 1.83519 9.6 2.16656V14.3808L12.3559 11.6137C12.5897 11.3789 12.9696 11.3781 13.2044 11.612C13.4392 11.8458 13.44 12.2257 13.2062 12.4605L9.42512 16.2568C9.31253 16.3699 9.15955 16.4334 9 16.4334C8.84045 16.4334 8.68747 16.3699 8.57488 16.2568L4.79385 12.4605C4.56001 12.2257 4.56078 11.8458 4.79557 11.612C5.03036 11.3781 5.41025 11.3789 5.64409 11.6137L8.4 14.3808V2.16656C8.4 1.83519 8.66863 1.56656 9 1.56656Z" fill="#7D8CA1"/>
</svg>
