<svg width="18" height="18" viewBox="0 0 18 18" fill="none" xmlns="http://www.w3.org/2000/svg">
<path d="M9 16.4334C8.66863 16.4334 8.4 16.1648 8.4 15.8334L8.4 3.61924L5.64409 6.38632C5.41025 6.6211 5.03036 6.62187 4.79557 6.38803C4.56078 6.15419 4.56001 5.77429 4.79385 5.53951L8.57488 1.74315C8.68747 1.6301 8.84045 1.56655 9 1.56655C9.15955 1.56655 9.31253 1.6301 9.42512 1.74315L13.2062 5.53951C13.44 5.7743 13.4392 6.15419 13.2044 6.38803C12.9696 6.62187 12.5897 6.62111 12.3559 6.38632L9.6 3.61924L9.6 15.8334C9.6 16.1648 9.33137 16.4334 9 16.4334Z" fill="#7D8CA1"/>
</svg>
