<svg width="17" height="17" viewBox="0 0 17 17" fill="none" xmlns="http://www.w3.org/2000/svg">
<path fill-rule="evenodd" clip-rule="evenodd" d="M7.7553 1.41742H9.24505C9.56722 1.41741 9.83719 1.41741 10.059 1.4325C10.2903 1.44824 10.5103 1.48224 10.7241 1.57057C11.2185 1.7748 11.6117 2.16673 11.8168 2.66058C11.9055 2.87429 11.9397 3.09416 11.9555 3.32505C11.9611 3.4066 11.9647 3.49465 11.9669 3.58939H14.3079C14.6209 3.58939 14.8746 3.8431 14.8746 4.15606C14.8746 4.46902 14.6209 4.72272 14.3079 4.72272H13.4226V12.724C13.4227 13.1091 13.4227 13.4321 13.4011 13.6964C13.3784 13.973 13.3294 14.2349 13.2025 14.4832C13.0086 14.8627 12.6992 15.1705 12.3198 15.3633C12.0715 15.4894 11.8096 15.5384 11.5326 15.561C11.2673 15.5826 10.9429 15.5826 10.5556 15.5826H6.44511C6.05778 15.5826 5.73322 15.5826 5.4678 15.561C5.19073 15.5384 4.92864 15.4895 4.68026 15.3633C4.30048 15.1703 3.99169 14.8623 3.79799 14.4832C3.67118 14.2349 3.62203 13.9731 3.59937 13.6965C3.57768 13.4317 3.57768 13.108 3.57769 12.722L3.57769 4.72272H2.69242C2.37946 4.72272 2.12576 4.46902 2.12576 4.15606C2.12576 3.8431 2.37946 3.58939 2.69242 3.58939H5.03344C5.03567 3.49466 5.03919 3.40663 5.04477 3.3251C5.06056 3.09423 5.09471 2.87433 5.1835 2.66058C5.38858 2.16681 5.78157 1.77483 6.27606 1.57057C6.4899 1.48223 6.70995 1.44824 6.94121 1.4325C7.16311 1.41741 7.43312 1.41741 7.7553 1.41742ZM6.16709 3.58939H10.8332C10.8314 3.52053 10.8287 3.4589 10.8249 3.40251C10.813 3.22954 10.7919 3.14768 10.7701 3.0953C10.6805 2.87955 10.5085 2.70774 10.2914 2.61805C10.2384 2.59615 10.1558 2.57504 9.98211 2.56322C9.80332 2.55106 9.57213 2.55075 9.22614 2.55075H7.7742C7.42821 2.55075 7.19697 2.55106 7.01813 2.56322C6.84433 2.57505 6.76175 2.59616 6.70876 2.61805C6.49172 2.7077 6.31978 2.87947 6.23014 3.0953C6.2084 3.14764 6.18729 3.22947 6.17546 3.40246C6.1716 3.45887 6.16893 3.52051 6.16709 3.58939ZM4.71103 4.72272V12.6991C4.71103 13.114 4.71147 13.391 4.72892 13.6039C4.74582 13.8102 4.77579 13.906 4.80723 13.9675C4.89194 14.1333 5.02706 14.2682 5.19367 14.3529C5.25588 14.3845 5.35253 14.4145 5.55984 14.4314C5.77368 14.4488 6.05171 14.4492 6.4676 14.4492H10.533C10.9489 14.4492 11.2268 14.4488 11.4405 14.4314C11.6475 14.4145 11.7441 14.3845 11.8064 14.3529C11.9734 14.268 12.1088 14.1329 12.1933 13.9675C12.2247 13.9061 12.2546 13.8103 12.2715 13.604C12.2889 13.391 12.2893 13.114 12.2893 12.6991V4.72272H4.71103Z" fill="#71747C"/>
</svg>
