<svg width="20" height="20" viewBox="0 0 20 20" fill="none" xmlns="http://www.w3.org/2000/svg">
<path d="M18.1364 2.80488C18.3968 2.54453 18.3968 2.12242 18.1364 1.86207C17.8761 1.60172 17.4539 1.60172 17.1936 1.86207L10.0001 9.05561L2.80654 1.86207C2.54619 1.60172 2.12408 1.60172 1.86373 1.86207C1.60338 2.12242 1.60338 2.54453 1.86373 2.80488L9.05726 9.99842L1.8625 17.1932C1.60215 17.4535 1.60215 17.8756 1.8625 18.136C2.12285 18.3963 2.54496 18.3963 2.80531 18.136L10.0001 10.9412L17.1948 18.136C17.4552 18.3963 17.8773 18.3963 18.1376 18.136C18.398 17.8756 18.398 17.4535 18.1376 17.1932L10.9429 9.99842L18.1364 2.80488Z" fill="#7D8CA1"/>
</svg>
