<svg width="17" height="17" viewBox="0 0 17 17" fill="none" xmlns="http://www.w3.org/2000/svg">
<path fill-rule="evenodd" clip-rule="evenodd" d="M12.8419 1.42047C12.9922 1.42047 13.1363 1.48018 13.2426 1.58645L15.4136 3.75746C15.6349 3.97875 15.6349 4.33754 15.4136 4.55883L8.9007 11.0719C8.79443 11.1781 8.65029 11.2378 8.5 11.2378H6.32905C6.01609 11.2378 5.76238 10.9841 5.76238 10.6712V8.50016C5.76238 8.34987 5.82208 8.20574 5.92835 8.09947L10.27 3.7577L12.4412 1.58645C12.5475 1.48018 12.6916 1.42047 12.8419 1.42047ZM10.671 4.95954L6.89571 8.73488V10.1045H8.26528L12.0405 6.32915L10.671 4.95954ZM12.8419 5.52775L11.4723 4.15814L12.8419 2.78853L14.2115 4.15814L12.8419 5.52775Z" fill="#71747C"/>
<path d="M4.28014 2.86781L6.32919 2.86781C6.64215 2.86781 6.89585 3.12151 6.89585 3.43448C6.89585 3.74744 6.64215 4.00114 6.32919 4.00114H4.30296C3.88834 4.00114 3.61136 4.00158 3.39836 4.01898C3.19194 4.03584 3.09605 4.06576 3.03449 4.09713C2.86893 4.18148 2.7343 4.31615 2.64979 4.48201C2.6184 4.54361 2.5885 4.63946 2.57164 4.84576C2.55425 5.05868 2.55381 5.33558 2.55381 5.75023V12.6974C2.55381 13.1121 2.55425 13.389 2.57164 13.6019C2.5885 13.8082 2.6184 13.904 2.64979 13.9657C2.73429 14.1315 2.86891 14.2661 3.03448 14.3505C3.09606 14.3819 3.19196 14.4118 3.39837 14.4287C3.61136 14.4461 3.88834 14.4465 4.30296 14.4465H11.25C11.6646 14.4465 11.9415 14.4461 12.1543 14.4287C12.3605 14.4118 12.4563 14.3819 12.5179 14.3505C12.6839 14.2659 12.8188 14.1311 12.9031 13.9657C12.9344 13.9041 12.9643 13.8083 12.9811 13.602C12.9985 13.389 12.9989 13.1121 12.9989 12.6974V10.6712C12.9989 10.3582 13.2526 10.1045 13.5656 10.1045C13.8785 10.1045 14.1322 10.3582 14.1322 10.6712V12.7223C14.1322 13.1072 14.1322 13.43 14.1107 13.6941C14.0882 13.9705 14.0393 14.2321 13.9129 14.4802C13.7197 14.8594 13.4111 15.1673 13.0324 15.3603C12.7845 15.4867 12.523 15.5356 12.2466 15.5582C11.9821 15.5799 11.6585 15.5799 11.2726 15.5798H4.28048C3.89447 15.5799 3.5708 15.5799 3.30608 15.5582C3.02966 15.5357 2.76797 15.4867 2.51995 15.3603C2.14088 15.1672 1.833 14.859 1.63998 14.4802C1.51362 14.2322 1.46465 13.9706 1.44207 13.6942C1.42046 13.4296 1.42046 13.1061 1.42047 12.7203V5.72739C1.42046 5.34154 1.42046 5.01805 1.44207 4.75348C1.46465 4.47709 1.51362 4.21549 1.63998 3.9675C1.83299 3.58868 2.14085 3.28049 2.51995 3.08733C2.76798 2.96094 3.02968 2.91199 3.3061 2.88941C3.57073 2.86779 3.89428 2.8678 4.28014 2.86781Z" fill="#71747C"/>
</svg>
